<svg width="27" height="26" viewBox="0 0 27 26" fill="none" xmlns="http://www.w3.org/2000/svg">
<path d="M24.3893 11.3752H14.6185V1.62976C14.6185 0.736011 13.8872 0.00476074 12.9935 0.00476074C12.0997 0.00476074 11.3685 0.736011 11.3685 1.62976V11.3752H1.64844C0.754687 11.3752 0.0234375 12.1064 0.0234375 13.0002C0.0234375 13.8939 0.754687 14.6252 1.64844 14.6252H11.3685V24.3706C11.3685 25.2644 12.0997 25.9956 12.9935 25.9956C13.8872 25.9956 14.6185 25.2644 14.6185 24.3706V14.6252H24.3893C25.283 14.6252 26.0143 13.894 26.0143 13.0002C26.0143 12.1065 25.283 11.3752 24.3893 11.3752Z" fill="#03A850"/>
</svg>
