<svg width="121" height="32" viewBox="0 0 121 32" fill="none" xmlns="http://www.w3.org/2000/svg">
<path d="M1.12 10V0.298H7.672V2.132H3.304V4.036H7.182V5.828H3.304V8.166H7.994V10H1.12ZM16.1062 10C16.0036 9.664 15.8869 9.31867 15.7562 8.964C15.6349 8.60933 15.5136 8.25467 15.3922 7.9H11.6122C11.4909 8.25467 11.3649 8.60933 11.2342 8.964C11.1129 9.31867 11.0009 9.664 10.8982 10H8.63023C8.99423 8.95467 9.33957 7.98867 9.66623 7.102C9.9929 6.21533 10.3102 5.38 10.6182 4.596C10.9356 3.812 11.2436 3.07 11.5422 2.37C11.8502 1.66067 12.1676 0.969999 12.4942 0.298H14.5802C14.8976 0.969999 15.2102 1.66067 15.5182 2.37C15.8262 3.07 16.1342 3.812 16.4422 4.596C16.7596 5.38 17.0816 6.21533 17.4082 7.102C17.7349 7.98867 18.0802 8.95467 18.4442 10H16.1062ZM13.4882 2.496C13.4416 2.636 13.3716 2.82733 13.2782 3.07C13.1849 3.31267 13.0776 3.59267 12.9562 3.91C12.8349 4.22733 12.6996 4.57733 12.5502 4.96C12.4102 5.34267 12.2656 5.744 12.1162 6.164H14.8742C14.7249 5.744 14.5802 5.34267 14.4402 4.96C14.3002 4.57733 14.1649 4.22733 14.0342 3.91C13.9129 3.59267 13.8056 3.31267 13.7122 3.07C13.6189 2.82733 13.5442 2.636 13.4882 2.496ZM22.6058 8.334C22.9138 8.334 23.1658 8.31067 23.3618 8.264C23.5672 8.208 23.7305 8.138 23.8518 8.054C23.9732 7.96067 24.0572 7.85333 24.1038 7.732C24.1505 7.61067 24.1738 7.47533 24.1738 7.326C24.1738 7.00867 24.0245 6.74733 23.7258 6.542C23.4272 6.32733 22.9138 6.09867 22.1858 5.856C21.8685 5.744 21.5512 5.618 21.2338 5.478C20.9165 5.32867 20.6318 5.14667 20.3798 4.932C20.1278 4.708 19.9225 4.442 19.7638 4.134C19.6052 3.81667 19.5258 3.434 19.5258 2.986C19.5258 2.538 19.6098 2.13667 19.7778 1.782C19.9458 1.418 20.1838 1.11 20.4918 0.857999C20.7998 0.606 21.1732 0.414667 21.6118 0.284C22.0505 0.143999 22.5452 0.0739993 23.0958 0.0739993C23.7492 0.0739993 24.3138 0.143999 24.7898 0.284C25.2658 0.424 25.6578 0.578 25.9658 0.746L25.3358 2.468C25.0652 2.328 24.7618 2.20667 24.4258 2.104C24.0992 1.992 23.7025 1.936 23.2358 1.936C22.7132 1.936 22.3352 2.01067 22.1018 2.16C21.8778 2.3 21.7658 2.51933 21.7658 2.818C21.7658 2.99533 21.8078 3.14467 21.8918 3.266C21.9758 3.38733 22.0925 3.49933 22.2418 3.602C22.4005 3.69533 22.5778 3.784 22.7738 3.868C22.9792 3.94267 23.2032 4.022 23.4458 4.106C23.9498 4.29267 24.3885 4.47933 24.7618 4.666C25.1352 4.84333 25.4432 5.05333 25.6858 5.296C25.9378 5.53867 26.1245 5.82333 26.2458 6.15C26.3672 6.47667 26.4278 6.87333 26.4278 7.34C26.4278 8.24533 26.1105 8.95 25.4758 9.454C24.8412 9.94867 23.8845 10.196 22.6058 10.196C22.1765 10.196 21.7892 10.168 21.4438 10.112C21.0985 10.0653 20.7905 10.0047 20.5198 9.93C20.2585 9.85533 20.0298 9.776 19.8338 9.692C19.6472 9.608 19.4885 9.52867 19.3578 9.454L19.9738 7.718C20.2632 7.87667 20.6178 8.02133 21.0378 8.152C21.4672 8.27333 21.9898 8.334 22.6058 8.334ZM35.0308 0.298V2.16H32.1048V10H29.9208V2.16H26.9948V0.298H35.0308ZM43.0317 10.126C42.4997 10.126 41.9677 10.1073 41.4357 10.07C40.9131 10.042 40.3671 9.96733 39.7977 9.846V0.438C40.2457 0.354 40.7357 0.293333 41.2677 0.255999C41.7997 0.209333 42.2944 0.186 42.7517 0.186C43.3677 0.186 43.9324 0.232666 44.4457 0.325999C44.9684 0.409999 45.4164 0.559333 45.7897 0.773999C46.1631 0.988666 46.4524 1.27333 46.6577 1.628C46.8724 1.97333 46.9797 2.40267 46.9797 2.916C46.9797 3.69067 46.6064 4.302 45.8597 4.75C46.4757 4.98333 46.8957 5.30067 47.1197 5.702C47.3437 6.10333 47.4557 6.556 47.4557 7.06C47.4557 8.07733 47.0824 8.84267 46.3357 9.356C45.5984 9.86933 44.4971 10.126 43.0317 10.126ZM41.9257 5.772V8.278C42.0844 8.29667 42.2571 8.31067 42.4437 8.32C42.6304 8.32933 42.8357 8.334 43.0597 8.334C43.7131 8.334 44.2404 8.24067 44.6417 8.054C45.0431 7.86733 45.2437 7.522 45.2437 7.018C45.2437 6.57 45.0757 6.25267 44.7397 6.066C44.4037 5.87 43.9231 5.772 43.2977 5.772H41.9257ZM41.9257 4.106H42.9897C43.6617 4.106 44.1424 4.022 44.4317 3.854C44.7211 3.67667 44.8657 3.39667 44.8657 3.014C44.8657 2.622 44.7164 2.34667 44.4177 2.188C44.1191 2.02933 43.6804 1.95 43.1017 1.95C42.9151 1.95 42.7144 1.95467 42.4997 1.964C42.2851 1.964 42.0937 1.97333 41.9257 1.992V4.106ZM55.5633 10C55.4606 9.664 55.3439 9.31867 55.2133 8.964C55.0919 8.60933 54.9706 8.25467 54.8493 7.9H51.0693C50.9479 8.25467 50.8219 8.60933 50.6913 8.964C50.5699 9.31867 50.4579 9.664 50.3553 10H48.0873C48.4513 8.95467 48.7966 7.98867 49.1233 7.102C49.4499 6.21533 49.7673 5.38 50.0753 4.596C50.3926 3.812 50.7006 3.07 50.9993 2.37C51.3073 1.66067 51.6246 0.969999 51.9513 0.298H54.0373C54.3546 0.969999 54.6673 1.66067 54.9753 2.37C55.2833 3.07 55.5913 3.812 55.8993 4.596C56.2166 5.38 56.5386 6.21533 56.8653 7.102C57.1919 7.98867 57.5373 8.95467 57.9013 10H55.5633ZM52.9453 2.496C52.8986 2.636 52.8286 2.82733 52.7353 3.07C52.6419 3.31267 52.5346 3.59267 52.4133 3.91C52.2919 4.22733 52.1566 4.57733 52.0073 4.96C51.8673 5.34267 51.7226 5.744 51.5733 6.164H54.3313C54.1819 5.744 54.0373 5.34267 53.8973 4.96C53.7573 4.57733 53.6219 4.22733 53.4913 3.91C53.3699 3.59267 53.2626 3.31267 53.1693 3.07C53.0759 2.82733 53.0013 2.636 52.9453 2.496ZM61.3186 4.288C61.7106 3.62533 62.0839 2.96267 62.4386 2.3C62.7932 1.63733 63.1199 0.969999 63.4186 0.298H65.8266C65.2946 1.34333 64.7439 2.356 64.1746 3.336C63.6052 4.316 63.0032 5.30067 62.3686 6.29V10H60.1846V6.318C59.5499 5.32867 58.9432 4.33933 58.3646 3.35C57.7952 2.36067 57.2446 1.34333 56.7126 0.298H59.2466C59.5452 0.969999 59.8672 1.63733 60.2126 2.3C60.5579 2.96267 60.9266 3.62533 61.3186 4.288ZM3.766 29.334C4.074 29.334 4.326 29.3107 4.522 29.264C4.72733 29.208 4.89067 29.138 5.012 29.054C5.13333 28.9607 5.21733 28.8533 5.264 28.732C5.31067 28.6107 5.334 28.4753 5.334 28.326C5.334 28.0087 5.18467 27.7473 4.886 27.542C4.58733 27.3273 4.074 27.0987 3.346 26.856C3.02867 26.744 2.71133 26.618 2.394 26.478C2.07667 26.3287 1.792 26.1467 1.54 25.932C1.288 25.708 1.08267 25.442 0.924 25.134C0.765333 24.8167 0.686 24.434 0.686 23.986C0.686 23.538 0.77 23.1367 0.938 22.782C1.106 22.418 1.344 22.11 1.652 21.858C1.96 21.606 2.33333 21.4147 2.772 21.284C3.21067 21.144 3.70533 21.074 4.256 21.074C4.90933 21.074 5.474 21.144 5.95 21.284C6.426 21.424 6.818 21.578 7.126 21.746L6.496 23.468C6.22533 23.328 5.922 23.2067 5.586 23.104C5.25933 22.992 4.86267 22.936 4.396 22.936C3.87333 22.936 3.49533 23.0107 3.262 23.16C3.038 23.3 2.926 23.5193 2.926 23.818C2.926 23.9953 2.968 24.1447 3.052 24.266C3.136 24.3873 3.25267 24.4993 3.402 24.602C3.56067 24.6953 3.738 24.784 3.934 24.868C4.13933 24.9427 4.36333 25.022 4.606 25.106C5.11 25.2927 5.54867 25.4793 5.922 25.666C6.29533 25.8433 6.60333 26.0533 6.846 26.296C7.098 26.5387 7.28467 26.8233 7.406 27.15C7.52733 27.4767 7.588 27.8733 7.588 28.34C7.588 29.2453 7.27067 29.95 6.636 30.454C6.00133 30.9487 5.04467 31.196 3.766 31.196C3.33667 31.196 2.94933 31.168 2.604 31.112C2.25867 31.0653 1.95067 31.0047 1.68 30.93C1.41867 30.8553 1.19 30.776 0.994 30.692C0.807333 30.608 0.648667 30.5287 0.518 30.454L1.134 28.718C1.42333 28.8767 1.778 29.0213 2.198 29.152C2.62733 29.2733 3.15 29.334 3.766 29.334ZM11.1024 26.142C11.1024 26.618 11.1584 27.0473 11.2704 27.43C11.3918 27.8127 11.5598 28.144 11.7744 28.424C11.9984 28.6947 12.2691 28.9047 12.5864 29.054C12.9038 29.2033 13.2678 29.278 13.6784 29.278C14.0798 29.278 14.4391 29.2033 14.7564 29.054C15.0831 28.9047 15.3538 28.6947 15.5684 28.424C15.7924 28.144 15.9604 27.8127 16.0724 27.43C16.1938 27.0473 16.2544 26.618 16.2544 26.142C16.2544 25.666 16.1938 25.2367 16.0724 24.854C15.9604 24.462 15.7924 24.1307 15.5684 23.86C15.3538 23.58 15.0831 23.3653 14.7564 23.216C14.4391 23.0667 14.0798 22.992 13.6784 22.992C13.2678 22.992 12.9038 23.0713 12.5864 23.23C12.2691 23.3793 11.9984 23.594 11.7744 23.874C11.5598 24.1447 11.3918 24.476 11.2704 24.868C11.1584 25.2507 11.1024 25.6753 11.1024 26.142ZM18.5084 26.142C18.5084 26.9727 18.3824 27.7053 18.1304 28.34C17.8878 28.9653 17.5518 29.4927 17.1224 29.922C16.6931 30.342 16.1798 30.6593 15.5824 30.874C14.9944 31.0887 14.3598 31.196 13.6784 31.196C13.0158 31.196 12.3904 31.0887 11.8024 30.874C11.2144 30.6593 10.7011 30.342 10.2624 29.922C9.82377 29.4927 9.47844 28.9653 9.22644 28.34C8.97444 27.7053 8.84844 26.9727 8.84844 26.142C8.84844 25.3113 8.9791 24.5833 9.24044 23.958C9.50177 23.3233 9.85177 22.7913 10.2904 22.362C10.7384 21.9327 11.2518 21.6107 11.8304 21.396C12.4184 21.1813 13.0344 21.074 13.6784 21.074C14.3411 21.074 14.9664 21.1813 15.5544 21.396C16.1424 21.6107 16.6558 21.9327 17.0944 22.362C17.5331 22.7913 17.8784 23.3233 18.1304 23.958C18.3824 24.5833 18.5084 25.3113 18.5084 26.142ZM26.811 29.124V31H20.329V21.298H22.513V29.124H26.811ZM35.1512 31C35.0485 30.664 34.9318 30.3187 34.8012 29.964C34.6798 29.6093 34.5585 29.2547 34.4372 28.9H30.6572C30.5358 29.2547 30.4098 29.6093 30.2792 29.964C30.1578 30.3187 30.0458 30.664 29.9432 31H27.6752C28.0392 29.9547 28.3845 28.9887 28.7112 28.102C29.0378 27.2153 29.3552 26.38 29.6632 25.596C29.9805 24.812 30.2885 24.07 30.5872 23.37C30.8952 22.6607 31.2125 21.97 31.5392 21.298H33.6252C33.9425 21.97 34.2552 22.6607 34.5632 23.37C34.8712 24.07 35.1792 24.812 35.4872 25.596C35.8045 26.38 36.1265 27.2153 36.4532 28.102C36.7798 28.9887 37.1252 29.9547 37.4892 31H35.1512ZM32.5332 23.496C32.4865 23.636 32.4165 23.8273 32.3232 24.07C32.2298 24.3127 32.1225 24.5927 32.0012 24.91C31.8798 25.2273 31.7445 25.5773 31.5952 25.96C31.4552 26.3427 31.3105 26.744 31.1612 27.164H33.9192C33.7698 26.744 33.6252 26.3427 33.4852 25.96C33.3452 25.5773 33.2098 25.2273 33.0792 24.91C32.9578 24.5927 32.8505 24.3127 32.7572 24.07C32.6638 23.8273 32.5892 23.636 32.5332 23.496ZM41.587 21.186C43.043 21.186 44.1583 21.4473 44.933 21.97C45.7077 22.4833 46.095 23.286 46.095 24.378C46.095 25.0593 45.9363 25.6147 45.619 26.044C45.311 26.464 44.863 26.7953 44.275 27.038C44.471 27.2807 44.6763 27.5607 44.891 27.878C45.1057 28.186 45.3157 28.5127 45.521 28.858C45.7357 29.194 45.941 29.5487 46.137 29.922C46.333 30.286 46.515 30.6453 46.683 31H44.233C44.0557 30.6827 43.8737 30.3607 43.687 30.034C43.5097 29.7073 43.323 29.39 43.127 29.082C42.9403 28.774 42.7537 28.4847 42.567 28.214C42.3803 27.934 42.1937 27.682 42.007 27.458H40.929V31H38.745V21.438C39.221 21.3447 39.711 21.2793 40.215 21.242C40.7283 21.2047 41.1857 21.186 41.587 21.186ZM41.713 23.048C41.5543 23.048 41.4097 23.0527 41.279 23.062C41.1577 23.0713 41.041 23.0807 40.929 23.09V25.722H41.545C42.3663 25.722 42.9543 25.6193 43.309 25.414C43.6637 25.2087 43.841 24.8587 43.841 24.364C43.841 23.888 43.659 23.552 43.295 23.356C42.9403 23.1507 42.413 23.048 41.713 23.048ZM55.8702 31.196C54.2928 31.196 53.0888 30.7573 52.2582 29.88C51.4368 29.0027 51.0262 27.7567 51.0262 26.142C51.0262 25.3393 51.1522 24.6253 51.4042 24C51.6562 23.3653 52.0015 22.8333 52.4402 22.404C52.8788 21.9653 53.4015 21.634 54.0082 21.41C54.6148 21.186 55.2728 21.074 55.9822 21.074C56.3928 21.074 56.7662 21.1067 57.1022 21.172C57.4382 21.228 57.7322 21.298 57.9842 21.382C58.2362 21.4567 58.4462 21.536 58.6142 21.62C58.7822 21.704 58.9035 21.7693 58.9782 21.816L58.3482 23.58C58.0495 23.4213 57.6995 23.286 57.2982 23.174C56.9062 23.062 56.4582 23.006 55.9542 23.006C55.6182 23.006 55.2868 23.062 54.9602 23.174C54.6428 23.286 54.3582 23.468 54.1062 23.72C53.8635 23.9627 53.6675 24.28 53.5182 24.672C53.3688 25.064 53.2942 25.54 53.2942 26.1C53.2942 26.548 53.3408 26.968 53.4342 27.36C53.5368 27.7427 53.6955 28.074 53.9102 28.354C54.1342 28.634 54.4235 28.858 54.7782 29.026C55.1328 29.1847 55.5622 29.264 56.0662 29.264C56.3835 29.264 56.6682 29.2453 56.9202 29.208C57.1722 29.1707 57.3962 29.1287 57.5922 29.082C57.7882 29.026 57.9608 28.9653 58.1102 28.9C58.2595 28.8347 58.3948 28.774 58.5162 28.718L59.1182 30.468C58.8102 30.6547 58.3762 30.8227 57.8162 30.972C57.2562 31.1213 56.6075 31.196 55.8702 31.196ZM67.0063 29.124V31H60.5243V21.298H62.7083V29.124H67.0063ZM68.413 31V21.298H74.965V23.132H70.597V25.036H74.475V26.828H70.597V29.166H75.287V31H68.413ZM83.3992 31C83.2965 30.664 83.1799 30.3187 83.0492 29.964C82.9279 29.6093 82.8065 29.2547 82.6852 28.9H78.9052C78.7839 29.2547 78.6579 29.6093 78.5272 29.964C78.4059 30.3187 78.2939 30.664 78.1912 31H75.9232C76.2872 29.9547 76.6325 28.9887 76.9592 28.102C77.2859 27.2153 77.6032 26.38 77.9112 25.596C78.2285 24.812 78.5365 24.07 78.8352 23.37C79.1432 22.6607 79.4605 21.97 79.7872 21.298H81.8732C82.1905 21.97 82.5032 22.6607 82.8112 23.37C83.1192 24.07 83.4272 24.812 83.7352 25.596C84.0525 26.38 84.3745 27.2153 84.7012 28.102C85.0279 28.9887 85.3732 29.9547 85.7372 31H83.3992ZM80.7812 23.496C80.7345 23.636 80.6645 23.8273 80.5712 24.07C80.4779 24.3127 80.3705 24.5927 80.2492 24.91C80.1279 25.2273 79.9925 25.5773 79.8432 25.96C79.7032 26.3427 79.5585 26.744 79.4092 27.164H82.1672C82.0179 26.744 81.8732 26.3427 81.7332 25.96C81.5932 25.5773 81.4579 25.2273 81.3272 24.91C81.2059 24.5927 81.0985 24.3127 81.0052 24.07C80.9119 23.8273 80.8372 23.636 80.7812 23.496ZM93.503 31C92.8777 29.8893 92.201 28.7927 91.473 27.71C90.745 26.6273 89.9704 25.6053 89.149 24.644V31H86.993V21.298H88.771C89.079 21.606 89.4197 21.984 89.793 22.432C90.1664 22.88 90.5444 23.3607 90.927 23.874C91.319 24.378 91.7064 24.9053 92.089 25.456C92.4717 25.9973 92.831 26.52 93.167 27.024V21.298H95.337V31H93.503ZM97.5751 21.298H99.7591V31H97.5751V21.298ZM108.515 31C107.889 29.8893 107.213 28.7927 106.485 27.71C105.757 26.6273 104.982 25.6053 104.161 24.644V31H102.005V21.298H103.783C104.091 21.606 104.431 21.984 104.805 22.432C105.178 22.88 105.556 23.3607 105.939 23.874C106.331 24.378 106.718 24.9053 107.101 25.456C107.483 25.9973 107.843 26.52 108.179 27.024V21.298H110.349V31H108.515ZM117.319 22.978C116.301 22.978 115.564 23.2627 115.107 23.832C114.659 24.392 114.435 25.162 114.435 26.142C114.435 26.618 114.491 27.052 114.603 27.444C114.715 27.8267 114.883 28.158 115.107 28.438C115.331 28.718 115.611 28.9373 115.947 29.096C116.283 29.2453 116.675 29.32 117.123 29.32C117.365 29.32 117.571 29.3153 117.739 29.306C117.916 29.2967 118.07 29.278 118.201 29.25V25.876H120.385V30.678C120.123 30.7807 119.703 30.888 119.125 31C118.546 31.1213 117.832 31.182 116.983 31.182C116.255 31.182 115.592 31.07 114.995 30.846C114.407 30.622 113.903 30.2953 113.483 29.866C113.063 29.4367 112.736 28.9093 112.503 28.284C112.279 27.6587 112.167 26.9447 112.167 26.142C112.167 25.33 112.293 24.6113 112.545 23.986C112.797 23.3607 113.142 22.8333 113.581 22.404C114.019 21.9653 114.533 21.634 115.121 21.41C115.718 21.186 116.353 21.074 117.025 21.074C117.482 21.074 117.893 21.1067 118.257 21.172C118.63 21.228 118.947 21.298 119.209 21.382C119.479 21.4567 119.699 21.536 119.867 21.62C120.044 21.704 120.17 21.7693 120.245 21.816L119.615 23.566C119.316 23.4073 118.971 23.272 118.579 23.16C118.196 23.0387 117.776 22.978 117.319 22.978Z" fill="white"/>
</svg>
