<svg width="24" height="24" viewBox="0 0 24 24" fill="none" xmlns="http://www.w3.org/2000/svg">
<g id="Icon-social-facebook">
<path id="social-facebook" d="M22.6734 0H1.32656C0.590625 0 0 0.590625 0 1.32656V22.6781C0 23.4094 0.590625 24 1.32656 24H12.8203V14.7047H9.69375V11.0812H12.8203V8.40937C12.8203 5.31094 14.7141 3.62344 17.4797 3.62344C18.8062 3.62344 19.9406 3.72188 20.2734 3.76406V7.00312H18.3563C16.8516 7.00312 16.5609 7.71562 16.5609 8.76562V11.0766H20.1469L19.6781 14.7H16.5563V24H22.6734C23.4047 24 24 23.4047 24 22.6734V1.32656C24 0.590625 23.4047 0 22.6734 0Z" fill="white"/>
</g>
</svg>
