<svg width="167" height="167" viewBox="0 0 167 167" fill="none" xmlns="http://www.w3.org/2000/svg">
<circle cx="83.5" cy="83.5" r="83.5" fill="#03A850"/>
<path d="M79.0433 48L81.5437 66.1685C79.2106 66.4916 77.0315 67.2511 75.077 68.3761L65.912 52.556C69.9751 50.1795 74.3903 48.6467 79.0433 48Z" fill="white"/>
<path d="M93.438 68.6711L103.109 53.1746C99.1167 50.6578 94.7586 48.9841 90.1365 48.1827L87.0418 66.2527C89.3485 66.6462 91.5143 67.4762 93.438 68.6711Z" fill="white"/>
<path d="M102.004 83.8164V83.9991C102.004 86.3613 101.551 88.6112 100.723 90.6785L117.328 97.4987C119.098 93.1535 120 88.5551 120 83.8164V83.7178L102.004 83.8164Z" fill="white"/>
<path d="M118.239 72.6646L101.058 78.2614C100.314 76.0258 99.1475 74.0009 97.642 72.2568L111.491 60.487C114.528 64.1007 116.791 68.1928 118.239 72.6646Z" fill="white"/>
<path d="M70.763 71.8077L57.2927 59.5733C54.1453 63.0748 51.7417 67.0964 50.1526 71.5121L67.1489 77.6857C67.9633 75.5057 69.2047 73.5089 70.763 71.8077Z" fill="white"/>
<path d="M84.0044 101.999C82.697 101.999 81.4204 101.858 80.1834 101.591L76.4285 119.197C78.9156 119.731 81.4204 120.026 84.0352 119.998C86.1174 119.998 88.226 119.815 90.2773 119.45L87.1695 101.717C86.1438 101.9 85.0873 101.999 84.0044 101.999Z" fill="white"/>
<path d="M100.803 115.822L92.4387 99.9033C94.5209 98.7927 96.361 97.2879 97.8357 95.502L111.574 107.075C108.563 110.675 104.936 113.628 100.803 115.822Z" fill="white"/>
<path d="M66.0088 83.9991L66.022 83.1554L48.0264 82.5087C48.0132 82.9446 48 83.3805 48 83.8307C48 88.0911 48.7307 92.2817 50.179 96.2615L67.0345 90.0598C66.3742 88.1616 66.0088 86.1224 66.0088 83.9991Z" fill="white"/>
<path d="M55.5935 106.035L69.7373 94.9676C71.1724 96.824 72.9552 98.3986 74.9934 99.5797L66.0396 115.175C61.9897 112.827 58.4769 109.747 55.5935 106.035Z" fill="white"/>
<path d="M81.9238 146.749L80.9841 155.885L73.9652 155.163L74.1643 153.228L79.0107 153.726L79.217 151.721L74.858 151.272L75.0485 149.42L79.4075 149.868L79.6152 147.849L74.6155 147.335L74.7516 146.012L73.4008 145.873L73.4623 145.274L83.3363 146.29L83.2747 146.888L81.9238 146.749Z" fill="white"/>
<path d="M55.586 140.104L55.8082 139.544L59.2303 140.903L59.2959 143.204L63.1084 144.717L64.7343 143.088L68.1564 144.447L67.9343 145.007L66.4379 144.413L59.3534 151.481L57.3886 150.701L57.0954 140.703L55.586 140.104ZM59.4391 148.382L61.6329 146.195L59.3558 145.291L59.4391 148.382Z" fill="white"/>
<path d="M43.2942 131.736L43.6559 131.255L50.7959 136.622L50.4342 137.103L48.9122 135.959C49.1655 136.476 49.3367 137.025 49.4257 137.606L47.4259 138.099C47.138 136.727 46.636 135.772 45.9198 135.234C45.5989 134.992 45.2985 134.872 45.0185 134.871C44.7255 134.873 44.492 134.989 44.3182 135.221C44.1387 135.459 44.0955 135.719 44.1885 135.999C44.276 136.286 44.5537 136.717 45.0216 137.291C45.7692 138.191 46.2266 138.973 46.3939 139.636C46.5481 140.3 46.3477 141.002 45.7925 141.741C45.2317 142.487 44.535 142.862 43.7025 142.867C42.8625 142.866 42.0434 142.565 41.2451 141.965C40.7228 141.573 40.2678 141.091 39.8802 140.519C39.4925 139.948 39.2281 139.352 39.0869 138.732L40.9299 138.121C41.2219 139.146 41.7297 139.93 42.4534 140.474C42.7444 140.693 43.029 140.796 43.3071 140.783C43.5722 140.772 43.7916 140.651 43.9655 140.42C44.1337 140.196 44.1676 139.941 44.0671 139.656C43.9591 139.364 43.6059 138.848 43.0075 138.106C42.396 137.366 42.0225 136.659 41.887 135.985C41.7514 135.311 41.9276 134.65 42.4154 134.001C43.0211 133.195 43.7915 132.799 44.7267 132.813L43.2942 131.736Z" fill="white"/>
<path d="M33.089 120.579L33.558 120.202L38.8933 126.834L38.4242 127.212L36.441 124.746L30.7576 129.318L32.4951 131.478L31.0224 132.663L26.1786 126.641L27.6513 125.456L29.3887 127.616L35.0721 123.044L33.089 120.579Z" fill="white"/>
<path d="M27.678 111.302L28.2139 111.027L29.8978 114.317L29.3619 114.592L27.678 111.302Z" fill="white"/>
<path d="M22.4726 96.0173L23.0544 95.8627L25.6327 105.564L25.0509 105.719L24.7021 104.406L15.8262 106.765L14.8481 103.085C14.6779 102.444 14.6083 101.874 14.6394 101.373C14.6681 100.863 14.7821 100.456 14.9813 100.152C15.3557 99.5988 15.8496 99.2406 16.463 99.0776C17.2027 98.881 17.8164 98.9738 18.3043 99.356C18.4737 99.4848 18.5849 99.576 18.6377 99.6295C18.6816 99.6855 18.7612 99.785 18.8765 99.9282C18.8469 99.3084 18.9896 98.7731 19.3044 98.3224C19.6078 97.8652 20.0571 97.5574 20.6524 97.3992C21.5454 97.1619 22.32 97.3326 22.976 97.9116L22.4726 96.0173ZM22.9369 102.615L22.5522 101.168C22.3915 100.563 22.1995 100.131 21.9761 99.8722C21.7412 99.6062 21.4073 99.5308 20.9743 99.6459C20.5323 99.7634 20.2869 100.002 20.2379 100.363C20.1774 100.717 20.2407 101.246 20.4277 101.95L20.7586 103.194L22.9369 102.615ZM19.0943 103.637L18.8282 102.635C18.6724 102.049 18.4942 101.633 18.2936 101.387C18.0906 101.132 17.7816 101.059 17.3667 101.17C16.9427 101.282 16.6979 101.487 16.6321 101.785C16.5663 102.083 16.6161 102.543 16.7816 103.165L17.0513 104.18L19.0943 103.637Z" fill="white"/>
<path d="M21.5825 77.4224L22.1845 77.4319L22.1266 81.1134L19.9986 81.9901L19.9342 86.0916L22.0337 87.0347L21.9759 90.7162L21.3739 90.7068L21.3992 89.097L12.2788 84.9773L12.312 82.8635L21.557 79.0462L21.5825 77.4224ZM15.2071 83.9591L18.0294 85.2356L18.0679 82.7859L15.2071 83.9591Z" fill="white"/>
<path d="M24.9727 63.2321L25.5509 63.3998L23.1409 71.7093L22.5627 71.5416L23.4635 68.4357L20.3306 67.527L13.6993 69.1313L14.3584 66.859L18.4431 65.8426L15.5361 62.7983L16.1951 60.5259L20.939 65.4294L24.0719 66.3381L24.9727 63.2321Z" fill="white"/>
<path d="M29.4278 53.6116L29.9599 53.8932L28.2314 57.1601L27.6993 56.8785L29.4278 53.6116Z" fill="white"/>
<path d="M38.3222 41.2855L38.7861 41.6692L33.0933 48.552L32.6294 48.1683L33.8429 46.7011C33.3143 46.9301 32.758 47.0756 32.1739 47.1375L31.7739 45.117C33.1581 44.8932 34.1357 44.4361 34.7068 43.7456C34.9626 43.4364 35.0971 43.1419 35.1104 42.8622C35.1225 42.5694 35.017 42.3308 34.7941 42.1464C34.5639 41.956 34.3068 41.9008 34.0227 41.9807C33.7314 42.0547 33.2884 42.312 32.6937 42.7528C31.7594 43.4577 30.9573 43.8783 30.2874 44.0146C29.6162 44.1378 28.9247 43.9049 28.2126 43.316C27.4934 42.7212 27.1508 42.0078 27.1848 41.1759C27.2247 40.3369 27.563 39.5326 28.1995 38.763C28.6159 38.2596 29.1186 37.8276 29.7076 37.4669C30.2966 37.1062 30.904 36.8697 31.5298 36.7575L32.0547 38.627C31.0171 38.871 30.2098 39.3418 29.6328 40.0394C29.4008 40.3199 29.2847 40.5994 29.2846 40.8778C29.2831 41.1431 29.3939 41.368 29.6169 41.5524C29.8326 41.7308 30.0855 41.7765 30.3756 41.6894C30.6716 41.5951 31.204 41.2663 31.9727 40.703C32.7402 40.1266 33.4637 39.7863 34.1433 39.6822C34.8229 39.5782 35.4755 39.7849 36.1012 40.3024C36.878 40.9449 37.2376 41.7329 37.1801 42.6664L38.3222 41.2855Z" fill="white"/>
<path d="M52.4912 29.936L52.8332 30.4314L43.317 37.0016L42.975 36.5062L45.5441 34.7324C44.6651 34.8062 43.8238 34.6555 43.0203 34.2803C42.2245 33.8997 41.5615 33.3254 41.0312 32.5573C40.2145 31.3745 39.9402 30.1065 40.2082 28.7533C40.4708 27.3924 41.1974 26.301 42.3879 25.4791C43.5784 24.6571 44.8564 24.3645 46.2221 24.6012C47.5824 24.8302 48.6709 25.5361 49.4875 26.7189C50.0178 27.487 50.316 28.3132 50.3822 29.1975C50.4483 30.0819 50.295 30.9193 49.9221 31.7098L52.4912 29.936ZM47.6636 27.9952C47.1652 27.2732 46.5105 26.8178 45.6997 26.6291C44.8889 26.4403 44.1455 26.5793 43.4696 27.0459C42.8014 27.5073 42.4119 28.1505 42.301 28.9756C42.1902 29.8006 42.384 30.5742 42.8825 31.2962C43.3756 32.0104 44.0276 32.462 44.8384 32.6507C45.644 32.8318 46.3808 32.6917 47.049 32.2303C47.7249 31.7637 48.1209 31.1216 48.2371 30.3042C48.3479 29.4791 48.1568 28.7094 47.6636 27.9952Z" fill="white"/>
<path d="M67.4868 23.6946L67.6862 24.2626L59.1265 27.2681L58.9271 26.7001L60.2084 26.2502L57.1658 17.5848L59.2264 16.8613L61.8238 24.2585L65.7602 22.8764L66.2054 24.1445L67.4868 23.6946Z" fill="white"/>
<path d="M84.7018 21.3863L84.7499 21.9864L81.0796 22.2806L80.0036 20.246L75.9148 20.5737L75.1765 22.7537L71.5063 23.0479L71.4582 22.4478L73.0631 22.3192L76.2927 12.8469L78.3999 12.678L83.0829 21.5161L84.7018 21.3863ZM77.5859 15.6645L76.5849 18.5959L79.027 18.4002L77.5859 15.6645Z" fill="white"/>
<path d="M91.845 21.9468L93.709 12.9539L97.3418 13.7069C98.8314 14.0157 99.8395 14.4867 100.366 15.1201C100.901 15.7554 101.054 16.6305 100.823 17.7454C100.504 19.2808 99.691 20.1464 98.3827 20.3423L99.796 23.5948L101.085 23.8619L100.962 24.4514L97.4667 23.7268L95.9755 20.2294L94.495 19.9225L93.8613 22.9795L90.3931 22.2606L90.5152 21.6711L91.845 21.9468ZM96.4414 18.3957C97.1725 18.5473 97.6952 18.5317 98.0095 18.349C98.3238 18.1664 98.534 17.8191 98.64 17.3073C98.748 16.7864 98.6848 16.4016 98.4504 16.1528C98.216 15.9041 97.7561 15.7087 97.0707 15.5666L95.4668 15.2341L94.8786 18.0718L96.4414 18.3957Z" fill="white"/>
<path d="M111.171 27.8518L110.922 28.3999L107.557 26.8708L107.806 26.3227L111.171 27.8518Z" fill="white"/>
<path d="M125.065 36.8646L124.701 37.3444L116.49 31.1192L116.854 30.6395L119.252 32.458C118.922 31.6573 118.812 30.8298 118.921 29.9754C119.043 29.1193 119.391 28.3119 119.967 27.5532C120.835 26.4079 121.957 25.7473 123.331 25.5715C124.714 25.4013 125.977 25.7504 127.123 26.6188C128.402 27.5887 129.104 28.8878 129.228 30.5162L127.215 30.9229C127.184 29.8214 126.759 28.9605 125.941 28.3403C125.286 27.8441 124.561 27.634 123.765 27.7102C122.983 27.7845 122.315 28.1861 121.763 28.915C121.216 29.6364 120.995 30.3829 121.101 31.1544C121.208 31.9259 121.573 32.5484 122.198 33.0221C123.053 33.6706 124.009 33.8622 125.065 33.597L125.309 35.5919C124.694 35.7231 124.092 35.7526 123.503 35.6805L125.065 36.8646Z" fill="white"/>
<path d="M135.931 49.1205L135.457 49.4917L129.863 42.3495L130.337 41.9783L131.175 43.0474L138.405 37.3847L139.752 39.1041L133.579 43.9382L136.152 47.2227L135.094 48.0514L135.931 49.1205Z" fill="white"/>
<path d="M139.391 54.9165L147.793 51.2087L150.641 57.6641L148.861 58.4497L146.894 53.9924L145.05 54.8063L146.819 58.8154L145.115 59.5671L143.346 55.5581L141.489 56.3776L143.518 60.9758L142.301 61.5128L142.85 62.7552L142.299 62.9982L138.292 53.9171L138.842 53.6741L139.391 54.9165Z" fill="white"/>
<path d="M146.66 81.0892L146.064 81.1732L145.549 77.5273L147.516 76.331L146.943 72.2692L144.722 71.6633L144.208 68.0174L144.804 67.9334L145.029 69.5276L154.678 72.1821L154.974 74.2753L146.433 79.4811L146.66 81.0892ZM151.943 73.6423L148.957 72.8193L149.299 75.2453L151.943 73.6423Z" fill="white"/>
<path d="M146.575 88.2586L155.652 89.6595L155.34 91.6796L148.381 95.4644L154.607 96.4254L154.274 98.5839L145.198 97.1829L144.991 98.525L144.396 98.4332L144.936 94.9327L151.707 91.2606L145.647 90.3252L146.187 86.8247L146.782 86.9165L146.575 88.2586Z" fill="white"/>
<path d="M141.013 109.745L140.457 109.514L142.215 105.273L142.771 105.503L142.31 106.615L150.794 110.133L149.957 112.15L141.474 108.633L141.013 109.745Z" fill="white"/>
<path d="M137.603 116.691L145.008 122.124L143.799 123.772L135.878 123.917L140.958 127.644L139.666 129.405L132.261 123.972L131.458 125.067L130.973 124.711L133.068 121.855L140.77 121.724L135.826 118.096L137.921 115.24L138.406 115.597L137.603 116.691Z" fill="white"/>
<path d="M118.028 136.723L117.666 136.241L126.06 129.933L126.421 130.414L123.993 132.239C124.853 132.141 125.679 132.262 126.471 132.6C127.261 132.952 127.942 133.509 128.514 134.27C129.378 135.419 129.706 136.679 129.498 138.049C129.283 139.425 128.616 140.533 127.497 141.375C126.37 142.221 125.115 142.587 123.732 142.471L123.654 140.48C124.235 140.522 124.716 140.487 125.099 140.375C125.48 140.275 125.842 140.097 126.185 139.839C126.849 139.34 127.237 138.692 127.35 137.894C127.469 137.105 127.251 136.34 126.696 135.602C126.14 134.863 125.478 134.433 124.709 134.31C123.938 134.201 123.25 134.373 122.646 134.828C122.042 135.282 121.625 135.776 121.396 136.31L123.011 138.459L121.254 139.78L119.168 137.004C119.208 136.53 119.328 136.06 119.528 135.595L118.028 136.723Z" fill="white"/>
<path d="M108.257 141.741L108.01 141.192L111.381 139.677L111.628 140.226L108.257 141.741Z" fill="white"/>
<path d="M102.225 143.406L102.366 143.992L99.7113 144.629L100.159 146.494C100.633 146.467 101.061 146.59 101.443 146.863C101.818 147.147 102.065 147.534 102.183 148.024C102.303 148.523 102.225 148.998 101.949 149.448C101.666 149.909 101.262 150.203 100.735 150.33C100.209 150.456 99.7195 150.377 99.2671 150.092C98.8079 149.819 98.5183 149.432 98.3983 148.933C98.2806 148.443 98.3289 147.985 98.5434 147.559C98.7578 147.133 99.0832 146.83 99.5195 146.648L99.0715 144.783L96.4034 145.424L96.2628 144.839L102.225 143.406Z" fill="white"/>
<path d="M85.5823 146.628L85.5527 146.026L89.2443 145.845L89.2738 146.446L85.5823 146.628Z" fill="white"/>
</svg>
