<svg width="51" height="50" viewBox="0 0 51 50" fill="none" xmlns="http://www.w3.org/2000/svg">
<path d="M21.6094 0L23.3428 12.5927C21.7253 12.8166 20.2147 13.3431 18.8597 14.1228L12.506 3.15781C15.3228 1.51062 18.3837 0.448227 21.6094 0Z" fill="white"/>
<path d="M31.5886 14.3272L38.2933 3.58658C35.5254 1.84212 32.5042 0.682068 29.2998 0.126648L27.1544 12.6511C28.7535 12.9238 30.255 13.4991 31.5886 14.3272Z" fill="white"/>
<path d="M37.5273 24.8245V24.9512C37.5273 26.5884 37.213 28.1479 36.6393 29.5807L48.1505 34.3079C49.3773 31.2962 50.0029 28.109 50.0029 24.8245V24.7562L37.5273 24.8245Z" fill="white"/>
<path d="M48.7822 17.0952L36.8712 20.9744C36.3555 19.4248 35.5468 18.0214 34.5031 16.8125L44.1039 8.65479C46.2096 11.1595 47.7782 13.9957 48.7822 17.0952Z" fill="white"/>
<path d="M15.869 16.5012L6.53064 8.02155C4.34863 10.4485 2.68237 13.2359 1.58069 16.2964L13.3635 20.5753C13.9281 19.0643 14.7887 17.6804 15.869 16.5012Z" fill="white"/>
<path d="M25.0487 37.4268C24.1423 37.4268 23.2573 37.3291 22.3998 37.1441L19.7966 49.3469C21.5209 49.7173 23.2573 49.9218 25.0701 49.9024C26.5135 49.9024 27.9753 49.7757 29.3975 49.5224L27.2429 37.2318C26.5319 37.3585 25.7994 37.4268 25.0487 37.4268Z" fill="white"/>
<path d="M36.6942 47.0078L30.8959 35.9745C32.3394 35.2047 33.615 34.1618 34.6373 32.9239L44.1619 40.9454C42.0745 43.4406 39.5598 45.4872 36.6942 47.0078Z" fill="white"/>
<path d="M12.5731 24.9512L12.5823 24.3664L0.106689 23.9182C0.0975342 24.2203 0.0883789 24.5224 0.0883789 24.8344C0.0883789 27.7874 0.594971 30.6919 1.599 33.4503L13.2842 29.1519C12.8264 27.8362 12.5731 26.4229 12.5731 24.9512Z" fill="white"/>
<path d="M5.35266 40.2241L15.158 32.5535C16.1528 33.8402 17.3888 34.9316 18.8018 35.7502L12.5945 46.5592C9.78687 44.9318 7.35156 42.7971 5.35266 40.2241Z" fill="white"/>
</svg>
