<svg width="28" height="28" viewBox="0 0 28 28" fill="none" xmlns="http://www.w3.org/2000/svg">
<g id="Icon-phone">
<path id="phone" fill-rule="evenodd" clip-rule="evenodd" d="M26.7149 19.5944L26.867 19.8733C27.2447 20.5951 28.3709 22.7225 26.9011 24.6257C26.2722 25.4733 24.9204 27.0319 23.1602 27.7537L22.7927 27.8905L22.6406 27.8959C22.2407 27.967 21.7656 27.9835 21.4153 27.9835C20.0532 27.9835 12.9661 27.6608 6.8633 21.2733C0.420428 14.5413 -0.0768866 5.94987 0.661395 4.26546C1.45436 2.5538 3.0779 1.25764 3.96999 0.645187C4.33571 0.409988 4.68605 0.256927 5.06374 0.147552C5.40212 0.059967 5.69777 0.0217285 5.99343 0.0217285C7.17604 0.0217285 8.14675 0.597015 8.67653 0.910721L8.6902 0.918625L8.96877 1.08813C10.888 2.26936 11.6433 8.23575 11.6433 8.29044C11.5886 9.54825 10.7461 10.4835 9.54299 11.6647C10.2266 12.9718 11.4946 14.6452 12.409 15.5803C13.2993 16.4936 14.7879 17.7459 16.1653 18.5499C17.2317 17.56 18.0025 16.9147 18.927 16.7014L19.5183 16.6194L19.6482 16.6248C19.7029 16.6248 25.6314 17.6311 26.7149 19.5944ZM22.0493 24.7788C22.8867 24.4124 23.8045 23.4663 24.3787 22.7007C24.5479 22.4764 24.4607 22.11 24.0779 21.3882L24.0181 21.2788C23.302 20.814 20.5625 20.0046 19.5987 19.8186C19.3064 19.9701 18.551 20.6746 18.0025 21.1855L17.9256 21.2569C17.2266 21.9295 16.1328 22.11 15.2407 21.6671C13.3916 20.7264 11.3528 19.053 10.1446 17.8062C8.91408 16.5484 7.17946 14.2296 6.40358 12.4303C6.04299 11.5499 6.23952 10.5436 6.89064 9.84358L6.94533 9.78345L7.03591 9.69415C7.51271 9.22429 8.26467 8.48206 8.45949 8.15382C8.31252 7.19124 7.62892 4.45142 7.18459 3.71313L7.05471 3.6311C6.75905 3.45615 6.20705 3.12802 5.90627 3.20461C5.82424 3.23195 5.74733 3.27563 5.71999 3.29208C4.76296 3.95378 3.96486 4.77409 3.60256 5.46858C3.44533 6.50764 3.68459 13.36 9.16018 19.0803C14.3709 24.5327 20.2822 24.8116 21.4153 24.8116C21.7537 24.8116 21.9673 24.7897 22.0493 24.7788Z" fill="white"/>
</g>
</svg>
