<svg width="24" height="24" viewBox="0 0 24 24" fill="none" xmlns="http://www.w3.org/2000/svg">
<g id="Icon-social-instagram">
<g id="Union">
<path d="M18 4.5C17.1703 4.5 16.5 5.17031 16.5 6C16.5 6.82969 17.1703 7.5 18 7.5C18.8297 7.5 19.5 6.82969 19.5 6C19.5 5.17031 18.8297 4.5 18 4.5Z" fill="white"/>
<path fill-rule="evenodd" clip-rule="evenodd" d="M6 12C6.20625 19.8609 17.8359 19.9031 18 12C17.7047 3.91403 6.29531 4.13903 6 12ZM15 12C15 16.0406 9 16.1296 9 12C9 8.13746 15 7.95934 15 12Z" fill="white"/>
<path fill-rule="evenodd" clip-rule="evenodd" d="M16.5 0H7.5C3.375 0 0 3.375 0 7.5V16.5C0 20.625 3.375 24 7.5 24H16.5C20.625 24 24 20.625 24 16.5V7.5C24 3.375 20.625 0 16.5 0ZM16.5 3C18.9797 3 21 5.02031 21 7.5V16.5C21 18.9797 18.9797 21 16.5 21H7.5C5.02031 21 3 18.9797 3 16.5V7.5C3 5.02031 5.02031 3 7.5 3H16.5Z" fill="white"/>
</g>
</g>
</svg>
