<?xml version="1.0" encoding="utf-8"?>
<!-- Generator: Adobe Illustrator 22.1.0, SVG Export Plug-In . SVG Version: 6.00 Build 0)  -->
<svg version="1.1" id="Layer_1" xmlns="http://www.w3.org/2000/svg" xmlns:xlink="http://www.w3.org/1999/xlink" x="0px" y="0px"
	 viewBox="0 0 195 50" style="enable-background:new 0 0 195 50;" xml:space="preserve">
<style type="text/css">
	.st0{fill:#ffff;}
</style>
<g>
	<path class="st0" d="M24.5,0.1l1.7,12.6c-1.6,0.2-3.1,0.8-4.5,1.5l-6.4-11C18.2,1.6,21.2,0.5,24.5,0.1z"/>
	<path class="st0" d="M34.4,14.4l6.7-10.7c-2.8-1.7-5.8-2.9-9-3.5L30,12.7C31.6,13,33.1,13.6,34.4,14.4z"/>
	<path class="st0" d="M40.4,24.9V25c0,1.6-0.3,3.2-0.9,4.6L51,34.4c1.2-3,1.9-6.2,1.9-9.5v-0.1L40.4,24.9z"/>
	<path class="st0" d="M51.6,17.2l-11.9,3.9c-0.5-1.5-1.3-3-2.4-4.2L47,8.7C49.1,11.2,50.6,14.1,51.6,17.2z"/>
	<path class="st0" d="M18.7,16.6L9.4,8.1c-2.2,2.4-3.8,5.2-4.9,8.3l11.8,4.3C16.8,19.2,17.6,17.8,18.7,16.6z"/>
	<path class="st0" d="M27.9,37.5c-0.9,0-1.8-0.1-2.6-0.3l-2.6,12.2c1.7,0.4,3.5,0.6,5.3,0.6c1.4,0,2.9-0.1,4.3-0.4l-2.2-12.3
		C29.4,37.4,28.6,37.5,27.9,37.5z"/>
	<path class="st0" d="M39.5,47.1l-5.8-11c1.4-0.8,2.7-1.8,3.7-3.1l9.5,8C44.9,43.5,42.4,45.6,39.5,47.1z"/>
	<path class="st0" d="M15.4,25l0-0.6L3,24c0,0.3,0,0.6,0,0.9c0,3,0.5,5.9,1.5,8.6l11.7-4.3C15.7,27.9,15.4,26.5,15.4,25z"/>
	<path class="st0" d="M8.2,40.3l9.8-7.7c1,1.3,2.2,2.4,3.6,3.2l-6.2,10.8C12.6,45,10.2,42.9,8.2,40.3z"/>
</g>
<path class="st0" d="M72.6,19.4V9.7h6.6v1.8h-4.4v1.9h3.9v1.8h-3.9v2.3h4.7v1.8H72.6z M87.6,19.4c-0.1-0.3-0.2-0.7-0.3-1
	c-0.1-0.4-0.2-0.7-0.4-1.1h-3.8c-0.1,0.4-0.2,0.7-0.4,1.1c-0.1,0.4-0.2,0.7-0.3,1h-2.3c0.4-1,0.7-2,1-2.9c0.3-0.9,0.6-1.7,1-2.5
	c0.3-0.8,0.6-1.5,0.9-2.2c0.3-0.7,0.6-1.4,1-2.1h2.1c0.3,0.7,0.6,1.4,0.9,2.1c0.3,0.7,0.6,1.4,0.9,2.2c0.3,0.8,0.6,1.6,1,2.5
	c0.3,0.9,0.7,1.9,1,2.9H87.6z M85,11.9c0,0.1-0.1,0.3-0.2,0.6c-0.1,0.2-0.2,0.5-0.3,0.8c-0.1,0.3-0.3,0.7-0.4,1.1
	c-0.1,0.4-0.3,0.8-0.4,1.2h2.8c-0.1-0.4-0.3-0.8-0.4-1.2c-0.1-0.4-0.3-0.7-0.4-1.1c-0.1-0.3-0.2-0.6-0.3-0.8
	C85.1,12.2,85.1,12,85,11.9z M94.1,17.7c0.3,0,0.6,0,0.8-0.1c0.2-0.1,0.4-0.1,0.5-0.2c0.1-0.1,0.2-0.2,0.3-0.3
	c0-0.1,0.1-0.3,0.1-0.4c0-0.3-0.1-0.6-0.4-0.8c-0.3-0.2-0.8-0.4-1.5-0.7c-0.3-0.1-0.6-0.2-1-0.4c-0.3-0.1-0.6-0.3-0.9-0.5
	c-0.3-0.2-0.5-0.5-0.6-0.8c-0.2-0.3-0.2-0.7-0.2-1.1s0.1-0.8,0.3-1.2c0.2-0.4,0.4-0.7,0.7-0.9c0.3-0.3,0.7-0.4,1.1-0.6
	c0.4-0.1,0.9-0.2,1.5-0.2c0.7,0,1.2,0.1,1.7,0.2c0.5,0.1,0.9,0.3,1.2,0.5l-0.6,1.7c-0.3-0.1-0.6-0.3-0.9-0.4
	c-0.3-0.1-0.7-0.2-1.2-0.2c-0.5,0-0.9,0.1-1.1,0.2c-0.2,0.1-0.3,0.4-0.3,0.7c0,0.2,0,0.3,0.1,0.4s0.2,0.2,0.3,0.3
	c0.2,0.1,0.3,0.2,0.5,0.3c0.2,0.1,0.4,0.2,0.7,0.2c0.5,0.2,0.9,0.4,1.3,0.6c0.4,0.2,0.7,0.4,0.9,0.6c0.3,0.2,0.4,0.5,0.6,0.9
	c0.1,0.3,0.2,0.7,0.2,1.2c0,0.9-0.3,1.6-1,2.1c-0.6,0.5-1.6,0.7-2.9,0.7c-0.4,0-0.8,0-1.2-0.1c-0.3,0-0.7-0.1-0.9-0.2
	c-0.3-0.1-0.5-0.2-0.7-0.2c-0.2-0.1-0.3-0.2-0.5-0.2l0.6-1.7c0.3,0.2,0.6,0.3,1.1,0.4C93,17.7,93.5,17.7,94.1,17.7z M106.5,9.7v1.9
	h-2.9v7.8h-2.2v-7.8h-2.9V9.7H106.5z M114.5,19.5c-0.5,0-1.1,0-1.6-0.1c-0.5,0-1.1-0.1-1.6-0.2V9.8c0.4-0.1,0.9-0.1,1.5-0.2
	c0.5,0,1-0.1,1.5-0.1c0.6,0,1.2,0,1.7,0.1c0.5,0.1,1,0.2,1.3,0.4c0.4,0.2,0.7,0.5,0.9,0.9c0.2,0.3,0.3,0.8,0.3,1.3
	c0,0.8-0.4,1.4-1.1,1.8c0.6,0.2,1,0.6,1.3,1s0.3,0.9,0.3,1.4c0,1-0.4,1.8-1.1,2.3C117.1,19.3,116,19.5,114.5,19.5z M113.4,15.2v2.5
	c0.2,0,0.3,0,0.5,0c0.2,0,0.4,0,0.6,0c0.7,0,1.2-0.1,1.6-0.3c0.4-0.2,0.6-0.5,0.6-1c0-0.4-0.2-0.8-0.5-1c-0.3-0.2-0.8-0.3-1.4-0.3
	H113.4z M113.4,13.5h1.1c0.7,0,1.2-0.1,1.4-0.3c0.3-0.2,0.4-0.5,0.4-0.8c0-0.4-0.1-0.7-0.4-0.8c-0.3-0.2-0.7-0.2-1.3-0.2
	c-0.2,0-0.4,0-0.6,0c-0.2,0-0.4,0-0.6,0V13.5z M127.1,19.4c-0.1-0.3-0.2-0.7-0.4-1c-0.1-0.4-0.2-0.7-0.4-1.1h-3.8
	c-0.1,0.4-0.2,0.7-0.4,1.1c-0.1,0.4-0.2,0.7-0.3,1h-2.3c0.4-1,0.7-2,1-2.9c0.3-0.9,0.6-1.7,1-2.5c0.3-0.8,0.6-1.5,0.9-2.2
	c0.3-0.7,0.6-1.4,1-2.1h2.1c0.3,0.7,0.6,1.4,0.9,2.1c0.3,0.7,0.6,1.4,0.9,2.2c0.3,0.8,0.6,1.6,1,2.5c0.3,0.9,0.7,1.9,1,2.9H127.1z
	 M124.5,11.9c0,0.1-0.1,0.3-0.2,0.6c-0.1,0.2-0.2,0.5-0.3,0.8c-0.1,0.3-0.3,0.7-0.4,1.1c-0.1,0.4-0.3,0.8-0.4,1.2h2.8
	c-0.1-0.4-0.3-0.8-0.4-1.2c-0.1-0.4-0.3-0.7-0.4-1.1c-0.1-0.3-0.2-0.6-0.3-0.8C124.6,12.2,124.5,12,124.5,11.9z M132.8,13.7
	c0.4-0.7,0.8-1.3,1.1-2c0.4-0.7,0.7-1.3,1-2h2.4c-0.5,1-1.1,2.1-1.7,3c-0.6,1-1.2,2-1.8,3v3.7h-2.2v-3.7c-0.6-1-1.2-2-1.8-3
	c-0.6-1-1.1-2-1.7-3.1h2.5c0.3,0.7,0.6,1.3,1,2C132.1,12.4,132.4,13,132.8,13.7z M75.3,38.7c0.3,0,0.6,0,0.8-0.1
	c0.2-0.1,0.4-0.1,0.5-0.2c0.1-0.1,0.2-0.2,0.3-0.3s0.1-0.3,0.1-0.4c0-0.3-0.1-0.6-0.4-0.8c-0.3-0.2-0.8-0.4-1.5-0.7
	c-0.3-0.1-0.6-0.2-1-0.4c-0.3-0.1-0.6-0.3-0.9-0.5c-0.3-0.2-0.5-0.5-0.6-0.8c-0.2-0.3-0.2-0.7-0.2-1.1c0-0.4,0.1-0.8,0.3-1.2
	c0.2-0.4,0.4-0.7,0.7-0.9c0.3-0.3,0.7-0.4,1.1-0.6c0.4-0.1,0.9-0.2,1.5-0.2c0.7,0,1.2,0.1,1.7,0.2c0.5,0.1,0.9,0.3,1.2,0.5L78,32.9
	c-0.3-0.1-0.6-0.3-0.9-0.4c-0.3-0.1-0.7-0.2-1.2-0.2c-0.5,0-0.9,0.1-1.1,0.2c-0.2,0.1-0.3,0.4-0.3,0.7c0,0.2,0,0.3,0.1,0.4
	s0.2,0.2,0.4,0.3c0.2,0.1,0.3,0.2,0.5,0.3c0.2,0.1,0.4,0.2,0.7,0.2c0.5,0.2,0.9,0.4,1.3,0.6c0.4,0.2,0.7,0.4,0.9,0.6
	c0.3,0.2,0.4,0.5,0.6,0.9c0.1,0.3,0.2,0.7,0.2,1.2c0,0.9-0.3,1.6-1,2.1c-0.6,0.5-1.6,0.7-2.9,0.7c-0.4,0-0.8,0-1.2-0.1
	c-0.3,0-0.7-0.1-0.9-0.2c-0.3-0.1-0.5-0.2-0.7-0.2c-0.2-0.1-0.3-0.2-0.5-0.2l0.6-1.7c0.3,0.2,0.6,0.3,1.1,0.4
	C74.1,38.7,74.7,38.7,75.3,38.7z M82.6,35.5c0,0.5,0.1,0.9,0.2,1.3c0.1,0.4,0.3,0.7,0.5,1c0.2,0.3,0.5,0.5,0.8,0.6
	c0.3,0.1,0.7,0.2,1.1,0.2c0.4,0,0.8-0.1,1.1-0.2c0.3-0.1,0.6-0.4,0.8-0.6c0.2-0.3,0.4-0.6,0.5-1c0.1-0.4,0.2-0.8,0.2-1.3
	c0-0.5-0.1-0.9-0.2-1.3c-0.1-0.4-0.3-0.7-0.5-1c-0.2-0.3-0.5-0.5-0.8-0.6c-0.3-0.1-0.7-0.2-1.1-0.2c-0.4,0-0.8,0.1-1.1,0.2
	c-0.3,0.1-0.6,0.4-0.8,0.6c-0.2,0.3-0.4,0.6-0.5,1C82.7,34.7,82.6,35.1,82.6,35.5z M90,35.5c0,0.8-0.1,1.6-0.4,2.2
	c-0.2,0.6-0.6,1.2-1,1.6c-0.4,0.4-0.9,0.7-1.5,1c-0.6,0.2-1.2,0.3-1.9,0.3c-0.7,0-1.3-0.1-1.9-0.3c-0.6-0.2-1.1-0.5-1.5-1
	c-0.4-0.4-0.8-1-1-1.6c-0.3-0.6-0.4-1.4-0.4-2.2s0.1-1.6,0.4-2.2c0.3-0.6,0.6-1.2,1-1.6c0.4-0.4,1-0.8,1.5-1
	c0.6-0.2,1.2-0.3,1.8-0.3c0.7,0,1.3,0.1,1.9,0.3s1.1,0.5,1.5,1c0.4,0.4,0.8,1,1,1.6C89.9,34,90,34.7,90,35.5z M98.3,38.5v1.9h-6.5
	v-9.7H94v7.8H98.3z M106.7,40.4c-0.1-0.3-0.2-0.7-0.3-1c-0.1-0.4-0.2-0.7-0.4-1.1h-3.8c-0.1,0.4-0.2,0.7-0.4,1.1
	c-0.1,0.4-0.2,0.7-0.3,1h-2.3c0.4-1,0.7-2,1-2.9c0.3-0.9,0.6-1.7,1-2.5c0.3-0.8,0.6-1.5,0.9-2.2c0.3-0.7,0.6-1.4,1-2.1h2.1
	c0.3,0.7,0.6,1.4,0.9,2.1c0.3,0.7,0.6,1.4,0.9,2.2c0.3,0.8,0.6,1.6,1,2.5c0.3,0.9,0.7,1.9,1,2.9H106.7z M104,32.9
	c0,0.1-0.1,0.3-0.2,0.6c-0.1,0.2-0.2,0.5-0.3,0.8c-0.1,0.3-0.3,0.7-0.4,1c-0.1,0.4-0.3,0.8-0.4,1.2h2.8c-0.1-0.4-0.3-0.8-0.4-1.2
	c-0.1-0.4-0.3-0.7-0.4-1c-0.1-0.3-0.2-0.6-0.3-0.8C104.2,33.2,104.1,33,104,32.9z M113.1,30.6c1.5,0,2.6,0.3,3.3,0.8
	c0.8,0.5,1.2,1.3,1.2,2.4c0,0.7-0.2,1.2-0.5,1.7c-0.3,0.4-0.8,0.8-1.3,1c0.2,0.2,0.4,0.5,0.6,0.8c0.2,0.3,0.4,0.6,0.6,1
	c0.2,0.3,0.4,0.7,0.6,1.1c0.2,0.4,0.4,0.7,0.5,1.1h-2.4c-0.2-0.3-0.4-0.6-0.5-1c-0.2-0.3-0.4-0.6-0.6-1c-0.2-0.3-0.4-0.6-0.6-0.9
	c-0.2-0.3-0.4-0.5-0.6-0.8h-1.1v3.5h-2.2v-9.6c0.5-0.1,1-0.2,1.5-0.2C112.2,30.6,112.7,30.6,113.1,30.6z M113.2,32.5
	c-0.2,0-0.3,0-0.4,0c-0.1,0-0.2,0-0.3,0v2.6h0.6c0.8,0,1.4-0.1,1.8-0.3c0.4-0.2,0.5-0.6,0.5-1c0-0.5-0.2-0.8-0.5-1
	C114.5,32.6,113.9,32.5,113.2,32.5z M127.4,40.6c-1.6,0-2.8-0.4-3.6-1.3c-0.8-0.9-1.2-2.1-1.2-3.7c0-0.8,0.1-1.5,0.4-2.1
	c0.3-0.6,0.6-1.2,1-1.6c0.4-0.4,1-0.8,1.6-1c0.6-0.2,1.3-0.3,2-0.3c0.4,0,0.8,0,1.1,0.1c0.3,0.1,0.6,0.1,0.9,0.2
	c0.3,0.1,0.5,0.2,0.6,0.2c0.2,0.1,0.3,0.1,0.4,0.2l-0.6,1.8c-0.3-0.2-0.6-0.3-1.1-0.4c-0.4-0.1-0.8-0.2-1.3-0.2
	c-0.3,0-0.7,0.1-1,0.2c-0.3,0.1-0.6,0.3-0.9,0.5c-0.2,0.2-0.4,0.6-0.6,1c-0.1,0.4-0.2,0.9-0.2,1.4c0,0.4,0,0.9,0.1,1.3
	c0.1,0.4,0.3,0.7,0.5,1c0.2,0.3,0.5,0.5,0.9,0.7c0.4,0.2,0.8,0.2,1.3,0.2c0.3,0,0.6,0,0.9-0.1s0.5-0.1,0.7-0.1
	c0.2-0.1,0.4-0.1,0.5-0.2c0.1-0.1,0.3-0.1,0.4-0.2l0.6,1.8c-0.3,0.2-0.7,0.4-1.3,0.5C128.8,40.5,128.1,40.6,127.4,40.6z M138.5,38.5
	v1.9H132v-9.7h2.2v7.8H138.5z M139.9,40.4v-9.7h6.6v1.8h-4.4v1.9h3.9v1.8h-3.9v2.3h4.7v1.8H139.9z M154.9,40.4
	c-0.1-0.3-0.2-0.7-0.4-1c-0.1-0.4-0.2-0.7-0.4-1.1h-3.8c-0.1,0.4-0.2,0.7-0.4,1.1c-0.1,0.4-0.2,0.7-0.3,1h-2.3c0.4-1,0.7-2,1-2.9
	c0.3-0.9,0.6-1.7,1-2.5c0.3-0.8,0.6-1.5,0.9-2.2c0.3-0.7,0.6-1.4,1-2.1h2.1c0.3,0.7,0.6,1.4,0.9,2.1c0.3,0.7,0.6,1.4,0.9,2.2
	c0.3,0.8,0.6,1.6,1,2.5c0.3,0.9,0.7,1.9,1,2.9H154.9z M152.3,32.9c0,0.1-0.1,0.3-0.2,0.6c-0.1,0.2-0.2,0.5-0.3,0.8
	c-0.1,0.3-0.3,0.7-0.4,1c-0.1,0.4-0.3,0.8-0.4,1.2h2.8c-0.1-0.4-0.3-0.8-0.4-1.2c-0.1-0.4-0.3-0.7-0.4-1c-0.1-0.3-0.2-0.6-0.3-0.8
	C152.4,33.2,152.3,33,152.3,32.9z M165,40.4c-0.6-1.1-1.3-2.2-2-3.3s-1.5-2.1-2.3-3.1v6.4h-2.2v-9.7h1.8c0.3,0.3,0.6,0.7,1,1.1
	c0.4,0.4,0.8,0.9,1.1,1.4c0.4,0.5,0.8,1,1.2,1.6c0.4,0.5,0.7,1.1,1.1,1.6v-5.7h2.2v9.7H165z M169.1,30.7h2.2v9.7h-2.2V30.7z
	 M180,40.4c-0.6-1.1-1.3-2.2-2-3.3s-1.5-2.1-2.3-3.1v6.4h-2.2v-9.7h1.8c0.3,0.3,0.6,0.7,1,1.1c0.4,0.4,0.8,0.9,1.1,1.4
	c0.4,0.5,0.8,1,1.2,1.6c0.4,0.5,0.7,1.1,1.1,1.6v-5.7h2.2v9.7H180z M188.8,32.4c-1,0-1.8,0.3-2.2,0.9c-0.4,0.6-0.7,1.3-0.7,2.3
	c0,0.5,0.1,0.9,0.2,1.3c0.1,0.4,0.3,0.7,0.5,1s0.5,0.5,0.8,0.7c0.3,0.1,0.7,0.2,1.2,0.2c0.2,0,0.4,0,0.6,0c0.2,0,0.3,0,0.5-0.1v-3.4
	h2.2v4.8c-0.3,0.1-0.7,0.2-1.3,0.3c-0.6,0.1-1.3,0.2-2.1,0.2c-0.7,0-1.4-0.1-2-0.3c-0.6-0.2-1.1-0.6-1.5-1c-0.4-0.4-0.7-1-1-1.6
	c-0.2-0.6-0.3-1.3-0.3-2.1c0-0.8,0.1-1.5,0.4-2.2c0.3-0.6,0.6-1.2,1-1.6c0.4-0.4,1-0.8,1.5-1c0.6-0.2,1.2-0.3,1.9-0.3
	c0.5,0,0.9,0,1.2,0.1c0.4,0.1,0.7,0.1,1,0.2c0.3,0.1,0.5,0.2,0.7,0.2c0.2,0.1,0.3,0.1,0.4,0.2l-0.6,1.8c-0.3-0.2-0.6-0.3-1-0.4
	C189.7,32.4,189.3,32.4,188.8,32.4z"/>
</svg>
